<?xml version="1.0" encoding="UTF-8"?><svg width="512" height="512" version="1.1" viewBox="0 0 512 512" xmlns="http://www.w3.org/2000/svg" xmlns:xlink="http://www.w3.org/1999/xlink"><!--Generated by IJSVG (https://github.com/iconjar/IJSVG)--><g transform="scale(8)"><path fill="#000" d="M28.765,12.152c-0.747,-0.311 -1.608,-0.139 -2.179,0.434l-11.415,11.414h-5.171c-1.104,0 -2,0.896 -2,2v12c0,1.104 0.896,2 2,2h5.171l11.415,11.414c0.382,0.383 0.894,0.586 1.414,0.586c0.257,0 0.518,-0.05 0.765,-0.152c0.748,-0.31 1.235,-1.039 1.235,-1.848v-36c0,-0.809 -0.487,-1.538 -1.235,-1.848Z"></path><path fill="#000" d="M48.828,32l4.586,-4.586c0.781,-0.781 0.781,-2.047 0,-2.828c-0.781,-0.781 -2.047,-0.781 -2.828,0l-4.586,4.586l-4.586,-4.586c-0.781,-0.781 -2.047,-0.781 -2.828,0c-0.781,0.781 -0.781,2.047 0,2.828l4.586,4.586l-4.586,4.586c-0.781,0.781 -0.781,2.047 0,2.828c0.391,0.391 0.902,0.586 1.414,0.586c0.512,0 1.023,-0.195 1.414,-0.586l4.586,-4.586l4.586,4.586c0.391,0.391 0.902,0.586 1.414,0.586c0.512,0 1.023,-0.195 1.414,-0.586c0.781,-0.781 0.781,-2.047 0,-2.828l-4.586,-4.586Z"></path></g></svg>